<?xml version="1.0" standalone="no"?>
<!DOCTYPE svg PUBLIC "-//W3C//DTD SVG 20010904//EN"
 "http://www.w3.org/TR/2001/REC-SVG-20010904/DTD/svg10.dtd">
<svg version="1.0" xmlns="http://www.w3.org/2000/svg"
 width="512.000000pt" height="512.000000pt" viewBox="0 0 512.000000 512.000000"
 preserveAspectRatio="xMidYMid meet">

<g transform="translate(0.000000,512.000000) scale(0.100000,-0.100000)"
fill="#000000" stroke="none">
<path d="M2375 4899 c-1043 -85 -1910 -853 -2114 -1874 -96 -482 -43 -964 157
-1422 223 -510 668 -956 1182 -1183 645 -286 1365 -273 1996 36 484 237 889
656 1104 1144 358 809 242 1724 -306 2422 -83 106 -304 322 -414 404 -378 283
-792 438 -1260 474 -150 11 -199 11 -345 -1z m457 -224 c232 -30 449 -96 663
-200 495 -240 882 -671 1070 -1188 79 -221 115 -412 122 -662 7 -225 -10 -386
-62 -591 -191 -758 -796 -1358 -1557 -1544 -194 -48 -354 -63 -573 -57 -252 7
-452 45 -665 124 -696 260 -1196 833 -1354 1553 -39 178 -49 301 -43 514 5
197 18 296 62 467 217 847 936 1478 1810 1588 116 14 404 12 527 -4z"/>
<path d="M1662 3420 c-18 -11 -37 -31 -43 -44 -8 -18 -6 -153 10 -518 31 -694
31 -672 0 -738 -35 -73 -98 -133 -188 -178 -67 -33 -83 -37 -171 -40 -168 -7
-206 19 -198 136 5 60 19 110 74 252 31 82 -10 150 -91 150 -62 0 -86 -25
-134 -139 -55 -134 -74 -218 -69 -311 6 -93 29 -141 98 -203 80 -72 139 -91
295 -91 118 -1 138 2 219 28 213 70 347 215 392 427 15 69 15 110 -9 641 -16
351 -30 575 -37 588 -14 26 -68 60 -95 60 -11 0 -35 -9 -53 -20z"/>
<path d="M2776 3424 c-3 -9 -6 -35 -6 -59 0 -71 -38 -345 -65 -472 -34 -157
-85 -343 -95 -343 -4 0 -13 14 -19 32 -35 99 -170 265 -274 337 -62 42 -201
107 -248 116 -73 13 -139 -55 -124 -126 6 -29 56 -79 78 -79 7 0 39 -13 72
-29 124 -59 221 -165 305 -336 33 -66 65 -141 72 -167 12 -46 11 -47 -30 -111
-23 -35 -75 -96 -115 -134 -117 -114 -216 -153 -384 -153 -99 0 -104 -1 -135
-29 -28 -25 -33 -36 -33 -76 0 -67 38 -100 127 -109 79 -9 206 6 290 34 234
79 452 318 583 642 31 77 32 79 39 48 3 -18 6 -71 6 -119 0 -195 75 -334 211
-396 117 -52 118 -52 659 90 266 70 496 133 511 140 82 43 86 159 8 217 -54
40 -570 341 -609 354 -43 16 -84 17 -131 4 -46 -13 -274 -160 -311 -200 -62
-67 -18 -170 71 -170 34 0 65 14 172 80 71 44 133 80 135 80 13 0 386 -224
378 -227 -5 -1 -173 -46 -373 -98 -244 -65 -372 -94 -390 -90 -43 10 -69 33
-93 78 -20 40 -22 68 -44 632 -13 325 -23 605 -24 623 l0 32 -104 0 c-85 0
-105 -3 -110 -16z"/>
</g>
</svg>
